OFF
48 46 0
0 0 0
91.0846 0 0
-4.92757 49.5045 0
79.1884 -48.3054 0
11.8954 -48.3049 0
67.2923 -96.6109 0
23.791 -96.6107 0
62.3648 -146.115 0
28.7182 -146.115 0
67.2912 -195.62 0
23.7899 -195.619 0
79.1862 -243.925 0
11.8931 -243.924 0
138.785 -212.679 0
109.939 -187.045 0
95.351 -152.748 0
122.303 -98.1827 0
128.398 -92.1804 0
173.367 -39.0627 0
107.864 46.834 0
199.05 3.54457 0
133.546 89.4414 0
181.333 -131.48 0
227.303 -112.462 0
210.342 -5.7783 0
270.112 -87.1186 0
253.152 19.5647 0
214.744 102.155 0
307.087 -53.8345 0
299.122 38.5821 0
289.013 105.111 0
239.469 109.615 0
310.954 168.727 0
269.167 195.722 0
191.063 121.098 0
223.974 216.522 0
145.871 141.897 0
338.969 -15.6447 0
345.093 57.5997 0
338.558 100.607 0
370.852 22.5447 0
387.903 82.9422 0
373.715 113.451 0
407.826 55.8287 0
436.858 132.411 0
383.414 145.54 0
451.637 79.3996 0
134.042 -146.923 0
3 0 1 2
3 36 34 35
3 35 34 33
3 34 31 33
3 33 31 32
3 31 30 32
3 12 11 10
3 11 9 10
3 10 9 8
3 9 7 8
3 8 7 6
3 7 5 6
3 6 5 4
3 5 3 4
3 4 3 0
3 3 1 0
3 1 18 19
3 18 20 19
3 19 20 21
3 24 26 27
3 31 26 30
3 26 29 30
3 11 13 9
3 29 38 39
3 9 14 7
3 38 41 42
3 7 15 5
3 41 44 45
3 5 16 3
3 3 17 1
3 17 18 1
3 18 23 24
3 23 25 24
3 24 25 26
3 25 28 26
3 26 28 29
3 28 37 29
3 29 37 38
3 37 40 38
3 38 40 41
3 40 43 41
3 41 43 44
3 43 46 44
3 47 22 17
3 17 22 18
3 22 23 18
