OFF
26 24 0
0 0 0
36 0 0
18 56.921 0
65.4545 20.6985 0
83.4545 -36.2224 0
101.455 20.6985 0
130.909 -4.60574e-05 0
143.107 -33.8704 0
190.562 2.35199 0
140.403 34.7256 0
168.136 57.679 0
172.562 -54.569 0
77.6529 54.5689 0
68.1593 89.2945 0
127.812 86.9424 0
80.3576 123.165 0
109.812 143.863 0
62.3576 180.086 0
44.3576 123.165 0
14.9031 143.863 0
2.70471 177.734 0
145.812 143.863 0
127.812 200.784 0
175.267 164.562 0
187.465 198.432 0
177.971 233.158 0
3 13 12 14
3 21 16 14
3 16 15 14
3 15 13 14
3 3 1 4
3 5 3 4
3 6 5 4
3 7 6 4
3 12 13 2
3 3 12 2
3 1 3 2
3 0 1 2
3 6 7 8
3 7 11 8
3 10 9 8
3 9 6 8
3 19 18 17
3 18 15 17
3 15 16 17
3 20 19 17
3 16 21 22
3 24 25 22
3 23 24 22
3 21 23 22
