OFF
92 90 0
0 0 0
37.8479 0 0
35.6754 37.8358 0
76.4157 1.27397 0
73.4983 33.477 0
118.89 -9.96565 0
115.761 20.5689 0
155.176 12.8035 0
157.667 -25.3878 0
106.883 -80.7723 0
75.3677 -3.94848 0
62.9156 -73.302 0
27.1455 -58.6468 0
13.2766 -94.512 0
-8.62081 -46.2922 0
-19.4811 -76.8566 0
-43.068 -17.9217 0
-53.4055 -47.6692 0
-92.6579 -20.1423 0
-82.0382 10.1579 0
-138.92 -3.93538 0
-128.524 25.7829 0
-176.635 27.8226 0
-186.77 -0.971525 0
-231.491 -2.66236 0
-221.114 27.2189 0
-268.108 3.97088 0
-256.673 40.2508 0
-293.674 51.8224 0
-301.942 21.4165 0
-335.872 48.3171 0
-248.033 95.1234 0
-178.792 99.5501 0
-223.759 97.5644 0
-128.566 30.6903 0
-130.421 93.3141 0
-79.564 32.652 0
-81.4986 95.1249 0
-33.567 103.737 0
-73.9003 132.814 0
-122.551 142.102 0
-129.643 104 0
-170.857 130.078 0
-166.426 161.738 0
-205.269 183.963 0
-210.013 152.278 0
-240.802 195.016 0
-247.553 157.201 0
-285.469 164.685 0
-284.323 93.2201 0
-329.255 163.482 0
-327.272 91.8492 0
-314.702 63.7234 0
-350.036 60.6165 0
-364.283 96.1314 0
-335.989 162.977 0
-370.613 151.004 0
-387.431 93.9543 0
-380.08 56.0338 0
-356.487 58.6681 0
-393.702 148.457 0
-395.178 186.74 0
-371.606 189.559 0
-338.595 168.81 0
-337.916 200.652 0
-298.204 185.756 0
-297.833 217.032 0
-260.483 224.385 0
-246.486 101.662 0
-232.777 85.6652 0
-26.0339 134.934 0
11.1408 111.031 0
18.2696 141.256 0
55.3708 138.38 0
-31.5336 33.122 0
13.0436 35.2122 0
11.6881 105.727 0
50.0544 43.0905 0
48.8827 98.7249 0
148.235 -79.7973 0
133.112 -115.284 0
93.3545 -109.521 0
49.2037 -107.664 0
62.3095 -79.3099 0
12.0993 -99.1298 0
162.779 -125.457 0
177.508 -89.6768 0
166.287 -27.6105 0
195.454 -37.7309 0
186.538 12.5506 0
188.538 -25.5824 0
30.1835 -55.1164 0
3 5 7 6
3 42 40 43
3 64 65 66
3 62 63 64
3 70 71 72
3 45 42 44
3 3 5 4
3 39 38 70
3 8 89 7
3 1 3 2
3 0 1 2
3 40 37 39
3 47 45 46
3 48 47 46
3 61 56 62
3 9 8 5
3 10 9 5
3 76 77 78
3 49 47 48
3 74 75 38
3 36 38 37
3 47 69 45
3 51 49 50
3 54 55 56
3 57 54 56
3 34 36 35
3 32 34 35
3 25 22 32
3 79 85 86
3 9 80 79
3 53 51 54
3 58 54 57
3 15 13 14
3 18 16 19
3 20 19 21
3 22 20 21
3 26 24 25
3 84 82 83
3 17 15 16
3 82 81 9
3 24 23 22
3 29 26 28
3 52 49 51
3 4 5 6
3 44 42 43
3 66 65 67
3 64 63 65
3 72 71 73
3 46 45 44
3 2 3 4
3 70 38 71
3 8 90 89
3 5 8 7
3 39 37 38
3 40 41 37
3 42 41 40
3 62 56 63
3 61 60 56
3 87 86 88
3 1 91 3
3 76 75 77
3 38 75 76
3 87 79 86
3 9 79 8
3 60 57 56
3 50 49 48
3 36 74 38
3 35 36 37
3 10 11 9
3 12 11 10
3 33 25 32
3 31 27 25
3 49 68 47
3 54 51 55
3 32 22 34
3 79 80 85
3 12 13 11
3 14 13 12
3 27 26 25
3 28 26 27
3 58 59 54
3 16 15 14
3 20 18 19
3 25 24 22
3 83 82 9
3 18 17 16
3 9 81 80
3 22 23 20
3 30 29 28
3 53 52 51
