<svg width="348.138332mm" height="614.557752mm" viewBox="0 0 348.138332 614.557752" xmlns="http://www.w3.org/2000/svg">
<g transform="translate(0 614.558) scale(1 -1)">
<path fill="none" stroke="red" style="stroke-width:0.1;stroke-linecap:round" d="M 16.6253 154.848 L 62.123 154.848 M 38.5739 186.172 L 16.6253 154.848 M 62.123 154.848 L 16.6281 154.343 M 57.338 219.88 L 38.5739 186.172 M 124.501 190.553 L 82.1307 188.537 M 82.1307 188.537 L 124.469 191.147 M 126.831 188.991 L 102.724 155.547 M 102.724 155.547 L 124.501 190.553 M 80.8113 119.656 L 106.025 91.301 M 53.0234 93.5414 L 80.8113 119.656 M 148.804 150.523 L 118.334 123.736 M 118.334 123.736 L 142.93 156.001 M 106.025 91.301 L 109.508 57.9782 M 182.424 91.3853 L 150.593 111.899 M 150.593 111.899 L 185.31 134.747 M 142.726 73.6298 L 174.172 50.8427 M 132.425 32.0549 L 142.726 73.6298 M 174.172 50.8427 L 182.424 91.3853 M 109.508 57.9782 L 77.1659 56.9782 M 119.893 0 L 132.425 32.0549 M 90.056 22.3553 L 119.893 0 M 77.1659 56.9782 L 90.056 22.3553 M 181.272 172.259 L 148.804 150.523 M 185.31 134.747 L 181.272 172.259 M 142.93 156.001 L 126.831 188.991 M 41.2815 125.589 L 53.0234 93.5414 M 16.6281 154.343 L 41.2815 125.589 M 78.0611 255.215 L 57.338 219.88 M 124.469 191.147 L 99.6615 221.733 M 99.6615 221.733 L 124.906 191.507 M 104.153 288.887 L 78.0611 255.215 M 139.745 226.244 L 115.929 252.884 M 115.929 252.884 L 145.156 280.67 M 149.135 265.39 L 139.745 226.244 M 124.906 191.507 L 147.569 162.628 M 163.237 198.42 L 176.015 237.388 M 147.569 162.628 L 163.237 198.42 M 176.015 237.388 L 165.592 197.726 M 186.935 277.291 L 149.135 265.39 M 227.665 289.287 L 186.935 277.291 M 214.364 250.332 L 227.665 289.287 M 251.357 262.298 L 214.364 250.332 M 203.593 210.924 L 166.704 194.879 M 165.592 197.726 L 203.593 210.924 M 242.39 224.649 L 251.357 262.298 M 233.817 187.52 L 242.39 224.649 M 247.445 223.106 L 233.817 187.52 M 196.351 171.545 L 194.585 130.021 M 166.704 194.879 L 196.351 171.545 M 228.276 147.311 L 262.057 123.423 M 194.585 130.021 L 228.276 147.311 M 262.615 162.849 L 266.576 123.619 M 262.057 123.423 L 262.615 162.849 M 291.278 226.243 L 273.764 195.11 M 273.764 195.11 L 247.445 223.106 M 296.234 153.095 L 272.311 118.8 M 266.576 123.619 L 296.234 153.095 M 348.138 179.886 L 309.914 187.86 M 309.914 187.86 L 291.278 226.243 M 332.64 142.88 L 348.138 179.886 M 307.185 116.384 L 332.64 142.88 M 292.579 83.3032 L 307.185 116.384 M 272.311 118.8 L 249.914 87.0753 M 249.914 87.0753 L 292.579 83.3032 M 103.304 328.829 L 104.153 288.887 M 145.156 280.67 L 173.468 309.387 M 140.071 313.952 L 136.566 353.426 M 166.391 344.413 L 140.071 313.952 M 99.8067 369.67 L 103.304 328.829 M 136.566 353.426 L 130.042 395.382 M 96.2521 410.526 L 99.8067 369.67 M 130.042 395.382 L 175.932 410.876 M 81.4271 437.063 L 96.2521 410.526 M 130.673 431.503 L 98.9359 469.799 M 175.932 410.876 L 130.673 431.503 M 59.4511 469.781 L 81.4271 437.063 M 98.9359 469.799 L 136.122 438.764 M 38.885 502.832 L 59.4511 469.781 M 78.2656 506.893 L 116.558 506.736 M 116.539 505.665 L 78.2656 506.893 M 20.4223 533.546 L 38.885 502.832 M 56.4548 546.309 L 66.1023 585.252 M 95.421 543.8 L 56.4548 546.309 M 0 558.699 L 20.4223 533.546 M 28.5669 579.252 L 0 558.699 M 37.744 614.558 L 28.5669 579.252 M 66.1023 585.252 L 37.744 614.558 M 116.558 506.736 L 95.421 543.8 M 135.602 535.874 L 116.539 505.665 M 169.725 462.538 L 132.043 472.114 M 132.043 472.114 L 155.424 502.956 M 136.122 438.764 L 169.725 462.538 M 155.424 502.956 L 135.602 535.874 M 173.468 309.387 L 166.391 344.413 "/>
<path fill="none" stroke="red" style="stroke-width:0.1;stroke-linecap:round;stroke-dasharray:2.40000004,2.40000004;stroke-dashoffset:0" d="M 62.123 154.848 L 38.5739 186.172 M 62.123 154.848 L 82.1307 188.537 M 102.724 155.547 L 62.123 154.848 M 62.123 154.848 L 80.8113 119.656 M 41.2815 125.589 L 62.123 154.848 M 82.1307 188.537 L 38.5739 186.172 M 102.724 155.547 L 82.1307 188.537 M 82.1307 188.537 L 57.338 219.88 M 99.6615 221.733 L 82.1307 188.537 M 102.724 155.547 L 80.8113 119.656 M 118.334 123.736 L 102.724 155.547 M 102.724 155.547 L 142.93 156.001 M 118.334 123.736 L 80.8113 119.656 M 80.8113 119.656 L 41.2815 125.589 M 118.334 123.736 L 106.025 91.301 M 118.334 123.736 L 150.593 111.899 M 150.593 111.899 L 106.025 91.301 M 106.025 91.301 L 142.726 73.6298 M 142.726 73.6298 L 150.593 111.899 M 150.593 111.899 L 148.804 150.523 M 142.726 73.6298 L 182.424 91.3853 M 109.508 57.9782 L 142.726 73.6298 M 109.508 57.9782 L 132.425 32.0549 M 90.056 22.3553 L 109.508 57.9782 M 132.425 32.0549 L 90.056 22.3553 M 148.804 150.523 L 185.31 134.747 M 57.338 219.88 L 99.6615 221.733 M 99.6615 221.733 L 78.0611 255.215 M 115.929 252.884 L 99.6615 221.733 M 99.6615 221.733 L 139.745 226.244 M 78.0611 255.215 L 115.929 252.884 M 104.153 288.887 L 115.929 252.884 M 139.745 226.244 L 124.906 191.507 M 163.237 198.42 L 139.745 226.244 M 176.015 237.388 L 139.745 226.244 M 163.237 198.42 L 124.906 191.507 M 149.135 265.39 L 176.015 237.388 M 176.015 237.388 L 186.935 277.291 M 214.364 250.332 L 176.015 237.388 M 203.593 210.924 L 176.015 237.388 M 214.364 250.332 L 186.935 277.291 M 214.364 250.332 L 203.593 210.924 M 242.39 224.649 L 214.364 250.332 M 242.39 224.649 L 203.593 210.924 M 233.817 187.52 L 203.593 210.924 M 203.593 210.924 L 196.351 171.545 M 196.351 171.545 L 233.817 187.52 M 228.276 147.311 L 233.817 187.52 M 262.615 162.849 L 233.817 187.52 M 233.817 187.52 L 273.764 195.11 M 196.351 171.545 L 228.276 147.311 M 262.615 162.849 L 228.276 147.311 M 262.615 162.849 L 273.764 195.11 M 296.234 153.095 L 262.615 162.849 M 273.764 195.11 L 296.234 153.095 M 309.914 187.86 L 273.764 195.11 M 296.234 153.095 L 309.914 187.86 M 296.234 153.095 L 332.64 142.88 M 307.185 116.384 L 296.234 153.095 M 309.914 187.86 L 332.64 142.88 M 272.311 118.8 L 307.185 116.384 M 292.579 83.3032 L 272.311 118.8 M 145.156 280.67 L 104.153 288.887 M 104.153 288.887 L 140.071 313.952 M 145.156 280.67 L 140.071 313.952 M 103.304 328.829 L 140.071 313.952 M 173.468 309.387 L 140.071 313.952 M 136.566 353.426 L 103.304 328.829 M 99.8067 369.67 L 136.566 353.426 M 99.8067 369.67 L 130.042 395.382 M 96.2521 410.526 L 130.042 395.382 M 130.673 431.503 L 130.042 395.382 M 130.673 431.503 L 96.2521 410.526 M 130.673 431.503 L 81.4271 437.063 M 98.9359 469.799 L 81.4271 437.063 M 98.9359 469.799 L 59.4511 469.781 M 98.9359 469.799 L 78.2656 506.893 M 98.9359 469.799 L 116.539 505.665 M 98.9359 469.799 L 132.043 472.114 M 78.2656 506.893 L 59.4511 469.781 M 38.885 502.832 L 78.2656 506.893 M 78.2656 506.893 L 56.4548 546.309 M 95.421 543.8 L 78.2656 506.893 M 38.885 502.832 L 56.4548 546.309 M 56.4548 546.309 L 20.4223 533.546 M 28.5669 579.252 L 56.4548 546.309 M 20.4223 533.546 L 28.5669 579.252 M 28.5669 579.252 L 66.1023 585.252 M 116.539 505.665 L 132.043 472.114 M 155.424 502.956 L 116.539 505.665 M 136.122 438.764 L 132.043 472.114 "/>
</g>
</svg>