OFF
94 92 0
0 0 0
45.4977 0 0
21.9486 31.3237 0
65.5054 33.6889 0
86.0982 0.699197 0
64.186 -35.192 0
101.709 -31.1116 0
89.3999 -63.547 0
133.967 -42.9493 0
126.101 -81.2182 0
165.798 -63.4627 0
157.547 -104.005 0
92.8829 -96.8697 0
115.799 -122.793 0
73.4307 -132.493 0
103.268 -154.848 0
60.5406 -97.8697 0
132.179 -4.32511 0
168.685 -20.1009 0
164.647 17.4106 0
126.305 1.1526 0
110.205 34.1434 0
24.6561 -29.2588 0
36.3981 -61.3065 0
0.00279844 -0.504616 0
107.876 35.7049 0
40.7126 65.0317 0
83.0362 66.8849 0
107.843 36.2988 0
61.4358 100.367 0
99.3037 98.0359 0
123.12 71.3962 0
108.281 36.659 0
146.612 43.5725 0
159.389 82.5398 0
132.509 110.542 0
170.309 122.443 0
197.739 95.4843 0
211.04 134.439 0
186.968 56.0757 0
225.765 69.8007 0
234.732 107.45 0
217.192 32.6721 0
179.726 16.6972 0
211.651 -7.53745 0
245.989 8.00082 0
257.139 40.2623 0
279.609 -1.7528 0
293.289 33.0117 0
316.015 -11.9676 0
331.513 25.0381 0
290.559 -38.4638 0
255.686 -36.0481 0
275.954 -71.5448 0
233.288 -67.7727 0
274.653 71.3946 0
249.951 -31.2293 0
230.819 68.2576 0
245.432 -31.4248 0
177.959 -24.8266 0
150.078 40.0306 0
148.967 42.8778 0
130.943 7.78 0
87.528 134.039 0
128.53 125.822 0
123.446 159.104 0
86.6784 173.981 0
119.941 198.578 0
83.1813 214.822 0
113.416 240.534 0
79.6267 255.678 0
114.048 276.655 0
64.8017 282.215 0
82.3106 314.951 0
42.8258 314.933 0
61.6403 352.045 0
22.2597 347.984 0
39.8294 391.461 0
3.79698 378.698 0
11.9416 424.404 0
-16.6253 403.852 0
49.4769 430.404 0
21.1187 459.71 0
78.7957 388.952 0
99.933 351.888 0
99.9136 350.817 0
115.418 317.266 0
119.497 283.916 0
153.1 307.69 0
138.798 348.108 0
118.977 381.026 0
159.306 256.028 0
156.843 154.539 0
149.766 189.565 0
3 0 1 2
3 58 45 44
3 79 77 81
3 29 30 63
3 54 53 52
3 24 22 1
3 78 79 80
3 55 46 48
3 86 73 87
3 82 79 81
3 15 13 14
3 53 51 52
3 75 73 85
3 65 66 63
3 11 10 9
3 5 1 22
3 72 71 73
3 64 65 63
3 4 3 1
3 2 1 3
3 37 38 36
3 13 12 14
3 26 2 3
3 8 17 6
3 27 3 28
3 71 69 91
3 66 65 67
3 48 49 50
3 89 85 86
3 69 68 67
3 12 16 14
3 68 66 67
3 22 23 5
3 47 49 48
3 62 33 32
3 71 72 70
3 63 30 64
3 73 74 72
3 34 36 35
3 35 31 34
3 45 56 47
3 87 88 86
3 43 39 60
3 64 92 65
3 39 40 37
3 9 7 12
3 17 18 19
3 73 86 85
3 46 45 47
3 40 41 37
3 20 4 6
3 1 5 4
3 27 29 26
3 79 78 77
3 12 13 9
3 61 39 34
3 52 51 47
3 68 69 70
3 34 39 37
3 5 6 4
3 85 89 90
3 47 48 46
3 39 42 40
3 8 9 10
3 51 49 47
3 18 17 8
3 78 76 77
3 76 75 77
3 36 34 37
3 3 27 26
3 93 65 92
3 44 43 59
3 6 5 7
3 42 46 57
3 29 27 30
3 3 4 25
3 75 84 83
3 42 39 43
3 9 8 7
3 4 20 21
3 8 6 7
3 77 75 83
3 44 42 43
3 32 31 27
3 31 30 27
3 73 75 74
3 75 76 74
3 42 44 45
3 46 42 45
3 31 32 33
3 34 31 33
3 71 70 69
