OFF
32 30 0
0 0 0
109.609 0 0
12.4154 57.4793 0
123.128 39.4031 0
43.8879 115.636 0
30.5362 177.353 0
-128.06 66.7609 0
-88.9929 39.3422 0
-40.7382 32.3257 0
-84.6845 221.249 0
-16.1911 219.826 0
-130.249 187.975 0
-151.607 128.553 0
-239.6 59.9617 0
-258.823 91.8787 0
-301.62 97.1753 0
-276.506 4.10683 0
-245.176 24.5831 0
-133.574 24.6674 0
-146.979 -21.1404 0
-169.891 -64.1845 0
-263.9 -7.82424 0
-334.762 64.4706 0
-317.462 11.7161 0
-191.427 177.559 0
-293.658 117.3 0
-237.132 210.639 0
-301.808 233.232 0
-339.044 127.694 0
150.153 143.886 0
138.03 198.065 0
34.4233 240.379 0
3 0 1 2
3 3 2 1
3 2 3 4
3 12 14 13
3 5 9 6
3 6 7 2
3 7 8 2
3 2 4 5
3 5 10 9
3 9 11 6
3 11 12 6
3 6 2 5
3 5 29 30
3 19 18 17
3 20 19 17
3 20 17 21
3 24 25 14
3 31 5 30
3 27 28 25
3 26 27 25
3 12 24 14
3 6 12 13
3 18 13 17
3 16 17 13
3 5 4 29
3 24 26 25
3 14 15 13
3 15 22 16
3 13 15 16
3 22 23 16
