<svg width="489.197199mm" height="304.563683mm" viewBox="0 0 489.197199 304.563683" xmlns="http://www.w3.org/2000/svg">
<g transform="translate(0 304.564) scale(1 -1)">
<path fill="none" stroke="red" style="stroke-width:0.1;stroke-linecap:round" d="M 339.044 64.1845 L 448.654 64.1845 M 351.46 121.664 L 339.044 64.1845 M 448.654 64.1845 L 462.172 103.588 M 298.306 96.5102 L 351.46 121.664 M 462.172 103.588 L 382.932 179.82 M 382.932 179.82 L 489.197 208.07 M 369.58 241.538 L 322.853 284.011 M 373.468 304.564 L 369.58 241.538 M 210.984 130.945 L 250.051 103.527 M 99.4445 124.146 L 210.984 130.945 M 250.051 103.527 L 298.306 96.5102 M 322.853 284.011 L 254.36 285.433 M 254.36 285.433 L 208.795 252.16 M 208.795 252.16 L 187.437 192.737 M 187.437 192.737 L 147.617 241.744 M 205.471 88.8519 L 99.4445 124.146 M 80.2212 156.063 L 37.4239 161.36 M 45.3866 181.484 L 80.2212 156.063 M 37.4239 161.36 L 4.28185 128.655 M 62.5385 68.2913 L 93.868 88.7676 M 21.5818 75.9006 L 62.5385 68.2913 M 93.868 88.7676 L 75.1441 56.3602 M 192.065 43.0441 L 205.471 88.8519 M 169.153 0 L 192.065 43.0441 M 75.1441 56.3602 L 169.153 0 M 4.28185 128.655 L 21.5818 75.9006 M 147.617 241.744 L 101.912 274.823 M 0 191.878 L 45.3866 181.484 M 101.912 274.823 L 37.2366 297.417 M 37.2366 297.417 L 0 191.878 M 489.197 208.07 L 477.074 262.249 M 477.074 262.249 L 373.468 304.564 "/>
<path fill="none" stroke="red" style="stroke-width:0.1;stroke-linecap:round;stroke-dasharray:2.40000004,2.40000004;stroke-dashoffset:0" d="M 351.46 121.664 L 448.654 64.1845 M 351.46 121.664 L 462.172 103.588 M 351.46 121.664 L 382.932 179.82 M 351.46 121.664 L 369.58 241.538 M 210.984 130.945 L 351.46 121.664 M 250.051 103.527 L 351.46 121.664 M 382.932 179.82 L 369.58 241.538 M 210.984 130.945 L 369.58 241.538 M 254.36 285.433 L 369.58 241.538 M 489.197 208.07 L 369.58 241.538 M 477.074 262.249 L 369.58 241.538 M 254.36 285.433 L 210.984 130.945 M 208.795 252.16 L 210.984 130.945 M 187.437 192.737 L 210.984 130.945 M 187.437 192.737 L 99.4445 124.146 M 187.437 192.737 L 80.2212 156.063 M 80.2212 156.063 L 99.4445 124.146 M 37.4239 161.36 L 99.4445 124.146 M 99.4445 124.146 L 62.5385 68.2913 M 99.4445 124.146 L 93.868 88.7676 M 80.2212 156.063 L 147.617 241.744 M 62.5385 68.2913 L 37.4239 161.36 M 62.5385 68.2913 L 4.28185 128.655 M 93.868 88.7676 L 205.471 88.8519 M 192.065 43.0441 L 93.868 88.7676 M 93.868 88.7676 L 169.153 0 M 147.617 241.744 L 45.3866 181.484 M 45.3866 181.484 L 101.912 274.823 M 45.3866 181.484 L 37.2366 297.417 "/>
</g>
</svg>