OFF
108 106 0
0 0 0
31.5792 0 0
14.5809 21.1704 0
21.4691 -24.4319 0
51.7723 -25.6114 0
41.0495 -53.3245 0
74.7091 -41.8279 0
64.8211 -68.3286 0
43.3832 -85.375 0
75.8265 -94.2325 0
95.3876 -72.2911 0
75.8914 -42.2996 0
55.3261 -110.325 0
17.6658 -76.7271 0
14.8327 -50.005 0
20.1102 -105.28 0
54.9533 -110.5 0
35.8448 -126.566 0
12.9377 -141.712 0
-7.97605 -94.0997 0
-8.3707 -63.9876 0
14.6165 -50.0288 0
-33.5475 -79.4046 0
-32.0817 -49.3834 0
-34.3121 -108.415 0
-9.62517 -123.549 0
19.3885 -106.946 0
9.49187 -142.734 0
-13.2806 -156.027 0
-35.7284 -138.17 0
-13.3717 -156.016 0
-60.0328 -122.244 0
-59.7335 -93.7365 0
-62.6654 -152.651 0
-37.7567 -168.93 0
-13.4975 -156.173 0
-65.9025 -182.797 0
-90.1411 -166.127 0
-87.3233 -137.795 0
-114.652 -150.004 0
-117.802 -176.992 0
-92.0034 -194.636 0
-118.115 -204.737 0
-147.794 -186.857 0
-144.582 -214.675 0
-143.628 -159.243 0
-173.99 -170.561 0
-173.438 -199.445 0
-198.324 -190.395 0
-194.365 -225.946 0
-209.936 -164.817 0
-145.309 -214.749 0
-169.112 -224.682 0
-194.1 -226.153 0
-164.615 -140.509 0
-115.074 -149.958 0
-66.0524 -183.013 0
-110.442 -122.907 0
-61.1011 -122.17 0
-59.4356 -93.2323 0
14.8714 -49.712 0
59.3042 -1.19494 0
-6.36199 -28.7648 0
12.3647 -48.9211 0
-23.6835 -8.57882 0
-26.9521 23.065 0
4.92319 25.2299 0
-48.2893 -1.79563 0
-46.1674 -28.6217 0
-59.7506 19.2151 0
-54.1869 43.3161 0
-34.3012 55.6597 0
-9.80946 50.3824 0
-59.3488 70.5956 0
-31.1097 82.0849 0
-9.92675 61.4546 0
-82.008 48.9053 0
-91.8017 73.8214 0
-73.7282 92.6222 0
-50.2605 103.306 0
-32.1872 84.4412 0
-23.6931 114.937 0
-4.25526 94.5584 0
2.08323 121.89 0
22.8075 103.435 0
19.4175 76.4972 0
-4.39933 68.863 0
16.9016 44.6476 0
-12.9725 144.536 0
22.6521 137.05 0
-6.96654 69.006 0
-45.3432 132.902 0
-73.0439 121.318 0
-73.9963 120.043 0
-99.3443 102.618 0
-121.469 81.5891 0
-113.378 54.2524 0
-111.503 52.3657 0
-100.834 26.6535 0
-128.824 28.6719 0
-115.632 1.66454 0
-88.7225 1.70399 0
-81.4763 35.5355 0
-84.2518 6.52093 0
-75.9927 -3.09284 0
-33.2446 -37.1416 0
-15.2076 -58.3585 0
10.511 -50.4965 0
3 0 1 2
3 24 31 29
3 32 31 24
3 4 5 6
3 34 35 29
3 26 25 27
3 91 79 81
3 62 106 107
3 69 102 103
3 17 16 15
3 15 16 8
3 37 41 56
3 7 6 5
3 30 25 29
3 70 102 69
3 93 78 79
3 81 79 80
3 43 44 42
3 24 29 25
3 85 84 82
3 42 41 40
3 15 18 17
3 22 59 24
3 85 86 87
3 3 5 4
3 50 48 46
3 79 78 73
3 52 51 47
3 68 64 67
3 60 5 3
3 61 1 4
3 40 41 37
3 13 5 14
3 25 28 27
3 11 7 10
3 33 29 31
3 76 97 98
3 79 91 92
3 95 96 77
3 77 97 76
3 38 39 37
3 74 71 75
3 82 86 85
3 20 23 22
3 104 67 69
3 21 20 13
3 72 71 65
3 46 45 54
3 33 34 29
3 8 7 5
3 19 25 26
3 106 62 105
3 63 3 62
3 7 9 10
3 4 1 3
3 24 25 19
3 57 39 38
3 51 43 47
3 73 80 79
3 71 74 73
3 105 62 64
3 62 3 0
3 52 47 53
3 94 77 78
3 12 9 8
3 81 80 82
3 37 39 40
3 0 64 62
3 65 0 66
3 81 83 88
3 33 38 37
3 15 8 13
3 19 22 24
3 82 80 90
3 8 9 7
3 98 100 101
3 95 77 94
3 49 47 48
3 1 0 3
3 88 83 89
3 20 22 19
3 58 38 33
3 13 8 5
3 40 55 45
3 40 43 42
3 82 83 81
3 78 77 73
3 69 67 65
3 37 36 33
3 15 13 19
3 45 43 40
3 46 43 45
3 33 36 34
3 84 83 82
3 73 77 76
3 97 99 98
3 19 13 20
3 98 99 100
3 65 64 0
3 73 70 71
3 67 64 65
3 48 47 46
3 76 70 73
3 46 47 43
3 65 70 69
3 71 70 65
