<svg width="305.323925mm" height="370.689228mm" viewBox="0 0 305.323925 370.689228" xmlns="http://www.w3.org/2000/svg">
<g transform="translate(0 370.689) scale(1 -1)">
<path fill="none" stroke="red" style="stroke-width:0.1;stroke-linecap:round" d="M 224.517 247.323 L 209.936 226.153 M 209.936 226.153 L 214.86 251.383 M 241.516 226.153 L 224.517 247.323 M 269.241 224.958 L 241.516 226.153 M 231.405 201.721 L 224.808 176.441 M 222.301 177.232 L 231.405 201.721 M 284.645 184.325 L 261.709 200.542 M 261.709 200.542 L 269.241 224.958 M 250.986 172.829 L 224.769 176.148 M 224.808 176.441 L 250.986 172.829 M 274.757 157.824 L 284.645 184.325 M 285.828 183.853 L 274.757 157.824 M 253.32 140.778 L 265.262 115.828 M 264.89 115.653 L 253.32 140.778 M 285.763 131.92 L 305.324 153.862 M 265.262 115.828 L 285.763 131.92 M 305.324 153.862 L 285.828 183.853 M 224.769 176.148 L 227.602 149.426 M 227.602 149.426 L 224.553 176.124 M 230.047 120.873 L 222.874 84.4412 M 201.96 132.053 L 230.047 120.873 M 245.781 99.5872 L 264.89 115.653 M 222.874 84.4412 L 245.781 99.5872 M 229.325 119.207 L 201.96 132.053 M 224.553 176.124 L 201.566 162.165 M 201.566 162.165 L 177.855 176.77 M 177.855 176.77 L 176.389 146.748 M 176.389 146.748 L 150.501 132.921 M 175.624 117.738 L 150.203 132.416 M 150.501 132.921 L 175.624 117.738 M 200.311 102.604 L 196.656 70.1263 M 196.565 70.1367 L 200.311 102.604 M 219.428 83.4192 L 229.325 119.207 M 196.656 70.1263 L 219.428 83.4192 M 174.208 87.983 L 196.565 70.1367 M 196.439 69.9802 L 174.208 87.983 M 150.203 132.416 L 149.904 103.909 M 149.904 103.909 L 147.271 73.5016 M 147.271 73.5016 L 148.835 103.983 M 172.18 57.2232 L 196.439 69.9802 M 144.034 43.3561 L 172.18 57.2232 M 119.795 60.0259 L 144.034 43.3561 M 143.884 43.1403 L 119.795 60.0259 M 122.613 88.3582 L 99.4947 103.246 M 148.835 103.983 L 122.613 88.3582 M 95.2843 76.149 L 92.1348 49.1611 M 99.4947 103.246 L 95.2843 76.149 M 92.1348 49.1611 L 94.8621 76.1949 M 91.8215 21.4158 L 117.933 31.5169 M 117.933 31.5169 L 143.884 43.1403 M 65.3544 11.4782 L 91.8215 21.4158 M 62.1424 39.2955 L 65.3544 11.4782 M 64.6273 11.4038 L 62.1424 39.2955 M 66.3088 66.9101 L 45.3211 85.6443 M 94.8621 76.1949 L 66.3088 66.9101 M 35.9466 55.5917 L 0 61.3361 M 45.3211 85.6443 L 35.9466 55.5917 M 15.5716 0.206625 L 36.4986 26.7079 M 36.4986 26.7079 L 15.836 0 M 11.6122 35.7581 L 15.5716 0.206625 M 0 61.3361 L 11.6122 35.7581 M 40.8242 1.47118 L 64.6273 11.4038 M 15.836 0 L 40.8242 1.47118 M 203.574 197.388 L 222.301 177.232 M 220.447 175.656 L 203.574 197.388 M 163.769 197.531 L 186.253 217.574 M 186.253 217.574 L 176.692 189.011 M 214.86 251.383 L 182.984 249.218 M 182.984 249.218 L 200.127 276.535 M 161.647 224.357 L 163.769 197.531 M 133.944 223.06 L 161.647 224.357 M 125.685 232.674 L 150.186 245.368 M 150.186 245.368 L 133.944 223.06 M 127.928 275.058 L 155.749 269.469 M 155.749 269.469 L 128.46 261.689 M 200.127 276.535 L 175.635 281.813 M 175.635 281.813 L 200.01 287.608 M 178.827 308.238 L 150.588 296.749 M 150.588 296.749 L 177.749 310.594 M 200.01 287.608 L 178.827 308.238 M 109.103 252.807 L 127.928 275.058 M 96.5579 280.405 L 118.135 299.974 M 118.135 299.974 L 98.433 278.519 M 135.94 346.196 L 136.208 318.775 M 136.208 318.775 L 110.592 328.771 M 136.892 347.471 L 159.676 329.459 M 159.676 329.459 L 135.94 346.196 M 177.749 310.594 L 202.97 295.159 M 196.964 370.689 L 186.243 341.09 M 186.243 341.09 L 164.593 359.055 M 205.681 320.711 L 205.537 295.016 M 202.97 295.159 L 205.681 320.711 M 232.744 329.588 L 212.02 348.043 M 212.02 348.043 L 232.588 363.203 M 229.354 302.65 L 232.744 329.588 M 226.838 270.801 L 229.354 302.65 M 205.537 295.016 L 226.838 270.801 M 232.588 363.203 L 196.964 370.689 M 164.593 359.055 L 136.892 347.471 M 110.592 328.771 L 88.4672 307.742 M 88.4672 307.742 L 96.5579 280.405 M 98.433 278.519 L 81.1122 254.825 M 121.214 227.857 L 109.103 252.807 M 81.1122 254.825 L 94.304 227.818 M 94.304 227.818 L 121.214 227.857 M 128.46 261.689 L 125.685 232.674 M 176.692 189.011 L 194.729 167.794 M 194.729 167.794 L 220.447 175.656 "/>
<path fill="none" stroke="red" style="stroke-width:0.1;stroke-linecap:round;stroke-dasharray:2.40000004,2.40000004;stroke-dashoffset:0" d="M 209.936 226.153 L 241.516 226.153 M 231.405 201.721 L 209.936 226.153 M 203.574 197.388 L 209.936 226.153 M 186.253 217.574 L 209.936 226.153 M 209.936 226.153 L 182.984 249.218 M 231.405 201.721 L 241.516 226.153 M 241.516 226.153 L 261.709 200.542 M 231.405 201.721 L 261.709 200.542 M 231.405 201.721 L 250.986 172.829 M 231.405 201.721 L 203.574 197.388 M 250.986 172.829 L 261.709 200.542 M 250.986 172.829 L 284.645 184.325 M 250.986 172.829 L 274.757 157.824 M 253.32 140.778 L 250.986 172.829 M 250.986 172.829 L 227.602 149.426 M 253.32 140.778 L 274.757 157.824 M 274.757 157.824 L 285.763 131.92 M 305.324 153.862 L 274.757 157.824 M 253.32 140.778 L 285.763 131.92 M 227.602 149.426 L 253.32 140.778 M 253.32 140.778 L 230.047 120.873 M 230.047 120.873 L 227.602 149.426 M 227.602 149.426 L 201.96 132.053 M 201.566 162.165 L 227.602 149.426 M 264.89 115.653 L 230.047 120.873 M 245.781 99.5872 L 230.047 120.873 M 201.96 132.053 L 201.566 162.165 M 201.96 132.053 L 176.389 146.748 M 201.96 132.053 L 175.624 117.738 M 201.96 132.053 L 200.311 102.604 M 176.389 146.748 L 201.566 162.165 M 176.389 146.748 L 175.624 117.738 M 175.624 117.738 L 200.311 102.604 M 174.208 87.983 L 175.624 117.738 M 149.904 103.909 L 175.624 117.738 M 200.311 102.604 L 229.325 119.207 M 219.428 83.4192 L 200.311 102.604 M 174.208 87.983 L 200.311 102.604 M 149.904 103.909 L 174.208 87.983 M 147.271 73.5016 L 174.208 87.983 M 174.208 87.983 L 172.18 57.2232 M 172.18 57.2232 L 147.271 73.5016 M 144.034 43.3561 L 147.271 73.5016 M 119.795 60.0259 L 147.271 73.5016 M 122.613 88.3582 L 147.271 73.5016 M 122.613 88.3582 L 119.795 60.0259 M 95.2843 76.149 L 119.795 60.0259 M 119.795 60.0259 L 92.1348 49.1611 M 117.933 31.5169 L 119.795 60.0259 M 122.613 88.3582 L 95.2843 76.149 M 92.1348 49.1611 L 117.933 31.5169 M 91.8215 21.4158 L 92.1348 49.1611 M 62.1424 39.2955 L 92.1348 49.1611 M 92.1348 49.1611 L 66.3088 66.9101 M 62.1424 39.2955 L 91.8215 21.4158 M 66.3088 66.9101 L 62.1424 39.2955 M 62.1424 39.2955 L 35.9466 55.5917 M 36.4986 26.7079 L 62.1424 39.2955 M 35.9466 55.5917 L 66.3088 66.9101 M 35.9466 55.5917 L 36.4986 26.7079 M 11.6122 35.7581 L 35.9466 55.5917 M 36.4986 26.7079 L 11.6122 35.7581 M 36.4986 26.7079 L 64.6273 11.4038 M 36.4986 26.7079 L 40.8242 1.47118 M 203.574 197.388 L 186.253 217.574 M 176.692 189.011 L 203.574 197.388 M 203.574 197.388 L 194.729 167.794 M 186.253 217.574 L 182.984 249.218 M 161.647 224.357 L 186.253 217.574 M 161.647 224.357 L 182.984 249.218 M 182.984 249.218 L 150.186 245.368 M 182.984 249.218 L 155.749 269.469 M 175.635 281.813 L 182.984 249.218 M 150.186 245.368 L 161.647 224.357 M 150.186 245.368 L 155.749 269.469 M 128.46 261.689 L 150.186 245.368 M 175.635 281.813 L 155.749 269.469 M 155.749 269.469 L 150.588 296.749 M 175.635 281.813 L 150.588 296.749 M 178.827 308.238 L 175.635 281.813 M 127.928 275.058 L 150.588 296.749 M 150.588 296.749 L 118.135 299.974 M 150.588 296.749 L 136.208 318.775 M 150.588 296.749 L 159.676 329.459 M 118.135 299.974 L 127.928 275.058 M 98.433 278.519 L 127.928 275.058 M 136.208 318.775 L 118.135 299.974 M 110.592 328.771 L 118.135 299.974 M 88.4672 307.742 L 118.135 299.974 M 136.208 318.775 L 159.676 329.459 M 159.676 329.459 L 177.749 310.594 M 186.243 341.09 L 159.676 329.459 M 164.593 359.055 L 159.676 329.459 M 177.749 310.594 L 186.243 341.09 M 177.749 310.594 L 205.681 320.711 M 205.681 320.711 L 186.243 341.09 M 186.243 341.09 L 212.02 348.043 M 212.02 348.043 L 205.681 320.711 M 205.681 320.711 L 232.744 329.588 M 229.354 302.65 L 205.681 320.711 M 196.964 370.689 L 212.02 348.043 M 205.537 295.016 L 229.354 302.65 M 109.103 252.807 L 98.433 278.519 M 81.1122 254.825 L 109.103 252.807 M 94.304 227.818 L 109.103 252.807 "/>
</g>
</svg>