OFF
64 90 0
-278.9939270019531250 -58.2600555419921875 34.9584007263183594
-247.8291931152343750 -58.1778182983398438 31.4375305175781250
-211.8048095703125000 -57.6053352355957031 13.6672468185424805
-175.4284667968750000 -57.6052360534667969 -11.4229593276977539
-139.0270538330078125 -58.1473426818847656 -22.5679588317871094
-102.6906509399414062 -57.6052589416503906 -14.5584917068481445
-65.1106796264648438 -57.6052436828613281 9.7420558929443359
-21.6000118255615234 -58.1825332641601562 29.7962799072265625
71.5725784301757812 -57.6052513122558594 9.7425022125244141
109.1526260375976562 -57.6052398681640625 -14.5581598281860352
145.4889221191406250 -58.1473274230957031 -22.5679836273193359
181.8839263916015625 -57.6052360534667969 -11.4233379364013672
217.1740112304687500 -57.6053161621093750 13.6668415069580078
271.3458251953125000 -58.2640647888183594 34.9956092834472656
-211.8527374267578125 -35.1354675292968750 34.5777893066406250
71.4604949951171875 -34.1284103393554688 31.4415283203125000
217.3282318115234375 -34.2524414062500000 35.3236312866210938
-102.7718429565429688 -34.7146606445312500 6.4277663230895996
-175.3405151367187500 -33.5548896789550781 10.1900281906127930
-64.9283294677734375 -33.8393325805664062 31.3091526031494141
-278.9935302734375000 -26.5578536987304688 56.2445716857910156
-139.0380096435546875 -26.9228267669677734 -1.0901086330413818
271.3491516113281250 -26.4152889251708984 56.2907447814941406
-278.9936523437500000 28.4003181457519531 56.4163894653320312
-211.8316802978515625 36.6783599853515625 35.3056602478027344
-139.0657501220703125 28.7235298156738281 -0.8928493261337280
271.3493652343750000 28.4464721679687500 56.3963356018066406
-65.1519317626953125 36.8043136596679688 31.1042251586914062
-175.3388671875000000 36.9056968688964844 9.6705694198608398
217.0618438720703125 37.4039001464843750 34.6663246154785156
248.3479309082031250 28.9357013702392578 53.0416641235351562
71.6824417114257812 37.6258926391601562 30.5689029693603516
-278.9939270019531250 60.5986137390136719 34.9584960937500000
271.3458251953125000 60.6026077270507812 34.9957351684570312
-21.2783393859863281 59.9437942504882812 29.1639766693115234
109.1526260375976562 59.9437942504882812 -14.5581169128417969
-175.4284515380859375 59.9438133239746094 -11.4229373931884766
-65.1106948852539062 59.9437904357910156 9.7420854568481445
-211.8047027587890625 59.9438514709472656 13.6671438217163086
71.5725860595703125 59.9437980651855469 9.7425346374511719
217.1739654541015625 59.9438514709472656 13.6667842864990234
247.8777160644531250 -58.1637191772460938 31.4173698425292969
109.2594299316406250 -33.9089813232421875 7.0037665367126465
248.3353118896484375 -26.3003101348876953 53.1439704895019531
247.8777160644531250 60.5022850036621094 31.4174251556396484
109.1775817871093750 36.4854621887207031 6.6617851257324219
145.5212249755859375 -26.4234561920166016 -0.9071770310401917
-21.2126388549804688 -26.4105567932128906 51.4427986145019531
-21.2828178405761719 36.0871582031250000 50.6521949768066406
145.5211334228515625 29.1250476837158203 -1.0395903587341309
145.4889526367187500 60.4859046936035156 -22.5679397583007812
27.7419834136962891 -26.0592670440673828 51.4966812133789062
181.8839263916015625 59.9438171386718750 -11.4232978820800781
27.9288311004638672 -58.2251625061035156 29.8784770965576172
181.7488403320312500 -34.6081733703613281 9.7772693634033203
-139.0270538330078125 60.4859046936035156 -22.5679149627685547
27.7401142120361328 59.9438018798828125 29.1641597747802734
181.8597717285156250 36.8651618957519531 10.0300741195678711
27.7547760009765625 36.5799102783203125 50.2679519653320312
-247.8291778564453125 60.5163841247558594 31.4375743865966797
-248.2876739501953125 -26.5894508361816406 53.0416374206542969
-102.6906890869140625 59.9438018798828125 -14.5584621429443359
-248.2733306884765625 28.6313953399658203 53.1439208984375000
-102.7675399780273438 35.8094291687011719 7.1131057739257812
3 14 1 2
3 15 53 8
3 12 54 11
3 41 16 12
3 6 17 5
3 42 15 9
3 18 14 3
3 7 19 6
3 60 0 1
3 21 18 4
3 17 21 4
3 53 47 7
3 46 42 10
3 54 46 10
3 13 43 41
3 24 60 14
3 18 24 14
3 17 25 21
3 57 46 54
3 27 63 19
3 48 19 47
3 46 45 42
3 29 57 16
3 30 16 43
3 26 30 43
3 58 48 51
3 15 58 51
3 45 31 15
3 62 32 23
3 24 59 62
3 44 29 30
3 33 30 26
3 61 55 63
3 34 27 48
3 56 48 58
3 31 56 58
3 50 35 45
3 55 36 28
3 37 61 27
3 36 38 24
3 35 39 31
3 52 50 57
3 40 57 29
3 3 14 2
3 9 15 8
3 11 54 10
3 12 16 54
3 5 17 4
3 10 42 9
3 4 18 3
3 6 19 17
3 60 20 0
3 14 60 1
3 7 47 19
3 53 51 47
3 15 51 53
3 41 43 16
3 13 22 43
3 60 23 20
3 21 25 18
3 17 63 25
3 19 63 17
3 60 62 23
3 24 62 60
3 22 26 43
3 16 57 54
3 48 27 19
3 51 48 47
3 18 28 24
3 25 28 18
3 42 45 15
3 46 49 45
3 57 49 46
3 30 29 16
3 15 31 58
3 62 59 32
3 25 55 28
3 63 55 25
3 49 50 45
3 57 50 49
3 33 44 30
3 27 61 63
3 56 34 48
3 45 35 31
3 28 36 24
3 34 37 27
3 24 38 59
3 31 39 56
3 40 52 57
3 44 40 29
