OFF
12 20 0
0.0000000000000000 0.0000000000000000 36.6173515319824219
32.7519493103027344 0.0000000000000000 16.3740501403808594
10.1216497421264648 31.1465015411376953 16.3740501403808594
-26.4957008361816406 19.2500000000000000 16.3740501403808594
-26.4957008361816406 -19.2500000000000000 16.3740501403808594
10.1216497421264648 -31.1465015411376953 16.3740501403808594
26.4957008361816406 19.2500000000000000 -16.3740501403808594
-10.1216497421264648 31.1465015411376953 -16.3740501403808594
-32.7519493103027344 0.0000000000000000 -16.3740501403808594
-10.1216497421264648 -31.1465015411376953 -16.3740501403808594
26.4957008361816406 -19.2500000000000000 -16.3740501403808594
0.0000000000000000 0.0000000000000000 -36.6135025024414062
3 0 1 2
3 0 2 3
3 0 3 4
3 0 4 5
3 0 5 1
3 1 10 6
3 2 6 7
3 3 7 8
3 4 8 9
3 5 9 10
3 1 6 2
3 2 7 3
3 3 8 4
3 4 9 5
3 5 10 1
3 6 11 7
3 7 11 8
3 8 11 9
3 9 11 10
3 10 11 6
