OFF
26 24 0
0 0 0
54 0 0
27 85.3815 0
98.1818 31.0478 0
125.182 -54.3336 0
152.182 31.0478 0
196.364 -7.34725e-05 0
214.661 -50.8056 0
285.843 3.52797 0
210.604 52.0884 0
252.204 86.5185 0
258.843 -81.8535 0
116.479 81.8533 0
102.239 133.942 0
191.718 130.414 0
120.536 184.747 0
164.718 215.795 0
93.5364 270.129 0
66.5364 184.747 0
22.3546 215.795 0
4.05704 266.601 0
218.718 215.795 0
191.718 301.177 0
262.9 246.843 0
281.197 297.649 0
266.957 349.737 0
3 13 12 14
3 21 16 14
3 16 15 14
3 15 13 14
3 3 1 4
3 5 3 4
3 6 5 4
3 7 6 4
3 12 13 2
3 3 12 2
3 1 3 2
3 0 1 2
3 6 7 8
3 7 11 8
3 10 9 8
3 9 6 8
3 19 18 17
3 18 15 17
3 15 16 17
3 20 19 17
3 16 21 22
3 24 25 22
3 23 24 22
3 21 23 22
