<svg width="285.842920mm" height="431.590513mm" viewBox="0 0 285.842920 431.590513" xmlns="http://www.w3.org/2000/svg">
<g transform="translate(0 431.591) scale(1 -1)">
<path fill="none" stroke="#05e658" style="stroke-width:0.5;stroke-linecap:round;stroke-dasharray:2.40000004,2.40000004;stroke-dashoffset:0;marker-end:url(#ArrowWideHeavy)" d="M 0 81.8535 L 54 81.8535 "/>
<path fill="none" stroke="#e18f0c" style="stroke-width:0.5;stroke-linecap:round;stroke-dasharray:2.40000004,2.40000004;stroke-dashoffset:0;marker-end:url(#ArrowWideHeavy)" d="M 0 81.8535 L 27 167.235 "/>
<path fill="none" stroke="#7cea0b" style="stroke-width:0.5;stroke-linecap:round;stroke-dasharray:2.40000004,2.40000004;stroke-dashoffset:0;marker-end:url(#ArrowWideHeavy)" d="M 54 81.8535 L 125.182 27.5199 "/>
<path fill="none" stroke="#e18f0c" style="stroke-width:0.5;stroke-linecap:round;stroke-dasharray:2.40000004,2.40000004;stroke-dashoffset:0;marker-end:url(#ArrowWideHeavy)" d="M 102.239 215.795 L 27 167.235 "/>
<path fill="none" stroke="#b0ed16" style="stroke-width:0.5;stroke-linecap:round;stroke-dasharray:2.40000004,2.40000004;stroke-dashoffset:0;marker-end:url(#ArrowWideHeavy)" d="M 98.1818 112.901 L 152.182 112.901 "/>
<path fill="none" stroke="#0878d4" style="stroke-width:0.5;stroke-linecap:round;stroke-dasharray:2.40000004,2.40000004;stroke-dashoffset:0;marker-end:url(#ArrowWideHeavy)" d="M 116.479 163.707 L 98.1818 112.901 "/>
<path fill="none" stroke="#7cea0b" style="stroke-width:0.5;stroke-linecap:round;stroke-dasharray:2.40000004,2.40000004;stroke-dashoffset:0;marker-end:url(#ArrowWideHeavy)" d="M 214.661 31.0479 L 125.182 27.5199 "/>
<path fill="none" stroke="#07a3d6" style="stroke-width:0.5;stroke-linecap:round;stroke-dasharray:2.40000004,2.40000004;stroke-dashoffset:0;marker-end:url(#ArrowWideHeavy)" d="M 152.182 112.901 L 196.364 81.8534 "/>
<path fill="none" stroke="#f75515" style="stroke-width:0.5;stroke-linecap:round;stroke-dasharray:2.40000004,2.40000004;stroke-dashoffset:0;marker-end:url(#ArrowWideHeavy)" d="M 210.604 133.942 L 196.364 81.8534 "/>
<path fill="none" stroke="#05e658" style="stroke-width:0.5;stroke-linecap:round;stroke-dasharray:2.40000004,2.40000004;stroke-dashoffset:0;marker-end:url(#ArrowWideHeavy)" d="M 258.843 0 L 214.661 31.0479 "/>
<path fill="none" stroke="#f64618" style="stroke-width:0.5;stroke-linecap:round;stroke-dasharray:2.40000004,2.40000004;stroke-dashoffset:0;marker-end:url(#ArrowWideHeavy)" d="M 252.204 168.372 L 285.843 85.3815 "/>
<path fill="none" stroke="#f64618" style="stroke-width:0.5;stroke-linecap:round;stroke-dasharray:2.40000004,2.40000004;stroke-dashoffset:0;marker-end:url(#ArrowWideHeavy)" d="M 258.843 0 L 285.843 85.3815 "/>
<path fill="none" stroke="#db0139" style="stroke-width:0.5;stroke-linecap:round;stroke-dasharray:2.40000004,2.40000004;stroke-dashoffset:0;marker-end:url(#ArrowWideHeavy)" d="M 252.204 168.372 L 210.604 133.942 "/>
<path fill="none" stroke="#280fe1" style="stroke-width:0.5;stroke-linecap:round;stroke-dasharray:2.40000004,2.40000004;stroke-dashoffset:0;marker-end:url(#ArrowWideHeavy)" d="M 191.718 212.267 L 116.479 163.707 "/>
<path fill="none" stroke="#db0139" style="stroke-width:0.5;stroke-linecap:round;stroke-dasharray:2.40000004,2.40000004;stroke-dashoffset:0;marker-end:url(#ArrowWideHeavy)" d="M 102.239 215.795 L 120.536 266.601 "/>
<path fill="none" stroke="#280fe1" style="stroke-width:0.5;stroke-linecap:round;stroke-dasharray:2.40000004,2.40000004;stroke-dashoffset:0;marker-end:url(#ArrowWideHeavy)" d="M 191.718 212.267 L 218.718 297.649 "/>
<path fill="none" stroke="#f75515" style="stroke-width:0.5;stroke-linecap:round;stroke-dasharray:2.40000004,2.40000004;stroke-dashoffset:0;marker-end:url(#ArrowWideHeavy)" d="M 120.536 266.601 L 66.5364 266.601 "/>
<path fill="none" stroke="#f028f1" style="stroke-width:0.5;stroke-linecap:round;stroke-dasharray:2.40000004,2.40000004;stroke-dashoffset:0;marker-end:url(#ArrowWideHeavy)" d="M 164.718 297.649 L 93.5364 351.982 "/>
<path fill="none" stroke="#13fd1b" style="stroke-width:0.5;stroke-linecap:round;stroke-dasharray:2.40000004,2.40000004;stroke-dashoffset:0;marker-end:url(#ArrowWideHeavy)" d="M 164.718 297.649 L 191.718 383.03 "/>
<path fill="none" stroke="#f028f1" style="stroke-width:0.5;stroke-linecap:round;stroke-dasharray:2.40000004,2.40000004;stroke-dashoffset:0;marker-end:url(#ArrowWideHeavy)" d="M 4.05704 348.454 L 93.5364 351.982 "/>
<path fill="none" stroke="#07a3d6" style="stroke-width:0.5;stroke-linecap:round;stroke-dasharray:2.40000004,2.40000004;stroke-dashoffset:0;marker-end:url(#ArrowWideHeavy)" d="M 22.3546 297.649 L 66.5364 266.601 "/>
<path fill="none" stroke="#bdde0d" style="stroke-width:0.5;stroke-linecap:round;stroke-dasharray:2.40000004,2.40000004;stroke-dashoffset:0;marker-end:url(#ArrowWideHeavy)" d="M 4.05704 348.454 L 22.3546 297.649 "/>
<path fill="none" stroke="#0878d4" style="stroke-width:0.5;stroke-linecap:round;stroke-dasharray:2.40000004,2.40000004;stroke-dashoffset:0;marker-end:url(#ArrowWideHeavy)" d="M 218.718 297.649 L 262.9 328.697 "/>
<path fill="none" stroke="#13fd1b" style="stroke-width:0.5;stroke-linecap:round;stroke-dasharray:2.40000004,2.40000004;stroke-dashoffset:0;marker-end:url(#ArrowWideHeavy)" d="M 266.957 431.591 L 191.718 383.03 "/>
<path fill="none" stroke="#b0ed16" style="stroke-width:0.5;stroke-linecap:round;stroke-dasharray:2.40000004,2.40000004;stroke-dashoffset:0;marker-end:url(#ArrowWideHeavy)" d="M 262.9 328.697 L 281.197 379.502 "/>
<path fill="none" stroke="#bdde0d" style="stroke-width:0.5;stroke-linecap:round;stroke-dasharray:2.40000004,2.40000004;stroke-dashoffset:0;marker-end:url(#ArrowWideHeavy)" d="M 266.957 431.591 L 281.197 379.502 "/>
<path fill="none" stroke="black" style="stroke-width:0.5;stroke-linecap:round" d="M 27 167.235 L 54 81.8535 M 98.1818 112.901 L 54 81.8535 M 27 167.235 L 98.1818 112.901 M 116.479 163.707 L 27 167.235 M 98.1818 112.901 L 125.182 27.5199 M 152.182 112.901 L 125.182 27.5199 M 196.364 81.8534 L 125.182 27.5199 M 214.661 31.0479 L 196.364 81.8534 M 285.843 85.3815 L 196.364 81.8534 M 285.843 85.3815 L 214.661 31.0479 M 210.604 133.942 L 285.843 85.3815 M 116.479 163.707 L 102.239 215.795 M 191.718 212.267 L 102.239 215.795 M 191.718 212.267 L 120.536 266.601 M 191.718 212.267 L 164.718 297.649 M 164.718 297.649 L 120.536 266.601 M 120.536 266.601 L 93.5364 351.982 M 218.718 297.649 L 164.718 297.649 M 93.5364 351.982 L 66.5364 266.601 M 93.5364 351.982 L 22.3546 297.649 M 218.718 297.649 L 191.718 383.03 M 191.718 383.03 L 262.9 328.697 M 191.718 383.03 L 281.197 379.502 "/>
<path fill="#280fe1" stroke="#280fe1" style="fill-opacity:0.35;stroke-width:0.5;stroke-linecap:round" d="M 191.298 211.996 L 191.413 208.499 L 120.039 162.433 L 116.899 163.978 "/>
<path fill="#0878d4" stroke="#0878d4" style="fill-opacity:0.35;stroke-width:0.5;stroke-linecap:round" d="M 116.31 163.236 L 118.523 160.526 L 101.784 114.049 L 98.3512 113.372 "/>
<path fill="#13fd1b" stroke="#13fd1b" style="fill-opacity:0.35;stroke-width:0.5;stroke-linecap:round" d="M 164.869 298.125 L 162.551 300.746 L 188.164 381.742 L 191.567 382.553 "/>
<path fill="#f028f1" stroke="#f028f1" style="fill-opacity:0.35;stroke-width:0.5;stroke-linecap:round" d="M 4.55665 348.474 L 6.23706 351.542 L 91.12 354.889 L 93.0368 351.963 "/>
<path fill="#bdde0d" stroke="#bdde0d" style="fill-opacity:0.35;stroke-width:0.5;stroke-linecap:round" d="M 4.22646 347.984 L 2.01385 345.274 L 18.7527 298.796 L 22.1852 298.119 "/>
<path fill="#db0139" stroke="#db0139" style="fill-opacity:0.35;stroke-width:0.5;stroke-linecap:round" d="M 251.819 168.053 L 248.519 169.217 L 210.463 137.719 L 210.989 134.261 "/>
<path fill="#e18f0c" stroke="#e18f0c" style="fill-opacity:0.35;stroke-width:0.5;stroke-linecap:round" d="M 0.150756 82.3302 L -2.16691 84.951 L 23.4461 165.947 L 26.8492 166.758 "/>
<path fill="#f64618" stroke="#f64618" style="fill-opacity:0.35;stroke-width:0.5;stroke-linecap:round" d="M 252.392 167.909 L 255.848 167.367 L 287.759 88.64 L 285.655 85.8448 "/>
<path fill="#05e658" stroke="#05e658" style="fill-opacity:0.35;stroke-width:0.5;stroke-linecap:round" d="M 0.5 81.8535 L 2.3 78.8535 L 51.7 78.8535 L 53.5 81.8535 "/>
<path fill="#f75515" stroke="#f75515" style="fill-opacity:0.35;stroke-width:0.5;stroke-linecap:round" d="M 210.472 133.46 L 207.104 132.514 L 194.076 84.8631 L 196.495 82.3357 "/>
<path fill="#b0ed16" stroke="#b0ed16" style="fill-opacity:0.35;stroke-width:0.5;stroke-linecap:round" d="M 263.069 329.167 L 266.502 329.844 L 283.241 376.322 L 281.028 379.032 "/>
<path fill="#07a3d6" stroke="#07a3d6" style="fill-opacity:0.35;stroke-width:0.5;stroke-linecap:round" d="M 22.7637 297.361 L 22.5115 293.872 L 62.9297 265.469 L 66.1273 266.888 "/>
<path fill="#7cea0b" stroke="#7cea0b" style="fill-opacity:0.35;stroke-width:0.5;stroke-linecap:round" d="M 54.3975 81.5501 L 54.008 78.0733 L 121.533 26.5307 L 124.784 27.8233 "/>
</g>
</svg>