OFF
104 102 0
0 0 0
44.3604 0 0
13.7266 36.6695 0
60.7521 40.5129 0
32.2638 72.6151 0
-8.62044 76.2084 0
21.1723 116.189 0
-21.0108 122.599 0
-46.7583 77.4205 0
-55.1106 120.363 0
-35.4069 162.764 0
-80.8671 153.674 0
-28.8159 35.5766 0
-74.0702 45.2625 0
-87.9773 87.565 0
-58.2059 119.643 0
-119.679 64.9517 0
-127.321 109.024 0
-101.948 143.798 0
-149.7 144.686 0
-113.417 182.872 0
-160.911 184.889 0
-189.285 154.543 0
-184.003 113.47 0
-143.037 103.114 0
-227.875 127.03 0
-227.247 90.7176 0
-192.123 72.3372 0
-261.853 98.1216 0
-250.505 55.2988 0
-295.305 69.3733 0
-295.703 32.0067 0
-256.869 12.6329 0
-218.14 22.5421 0
-290.271 -9.34872 0
-327.092 -9.06198 0
-353.113 22.0754 0
-348.564 58.0679 0
-306.905 67.6569 0
-396.914 36.6367 0
-390.416 74.085 0
-369.176 100.412 0
-325.526 94.0765 0
-431.779 53.3431 0
-417.364 97.2051 0
-373.154 103.176 0
-310.262 -52.0423 0
-272.678 -49.7403 0
-250.626 -14.5602 0
-283.37 -88.8667 0
-329.303 -88.5123 0
-313.763 -129.379 0
-274.749 -128.501 0
-295.063 -164.712 0
-351.507 -41.9156 0
-366.707 -0.273614 0
-391.109 -39.4545 0
-339.956 -80.5189 0
-382.55 -66.6272 0
-384.177 -105.254 0
-342.85 -124.145 0
-383.293 -146.164 0
-420.761 -126.374 0
-230.136 171.909 0
-139.495 223.623 0
-101.98 221.5 0
-69.7108 189.182 0
-91.7476 148.394 0
-115.791 263.969 0
-157.765 257.809 0
-190.636 213.837 0
-165.264 252.579 0
-64.5175 124.51 0
-107.832 25.8236 0
-149.093 33.2623 0
-166.572 71.3716 0
-140.437 104.574 0
-134.462 -6.98105 0
-88.2899 -10.1805 0
-116.803 -45.0091 0
-74.5445 -51.7373 0
-104.553 -83.9242 0
-152.079 -77.7412 0
-157.477 -34.8298 0
-194.093 -66.3752 0
-198.624 -22.9775 0
-229.902 -50.0316 0
-235.388 -8.14665 0
-227.748 -96.1513 0
-137.1 -115.193 0
-183.286 -111.803 0
-195.118 -71.2562 0
-222.99 -105.803 0
-208.515 -144.744 0
-77.5238 -1.73711 0
-36.5195 18.2122 0
-42.5676 -28.0805 0
-6.42216 -13.028 0
7.21667 30.2929 0
62.3352 96.405 0
70.1437 52.4347 0
77.5668 -8.90629 0
101.656 29.2609 0
50.8603 -43.8816 0
3 16 14 17
3 41 40 37
3 35 55 54
3 46 50 49
3 0 1 2
3 16 74 73
3 82 90 89
3 5 6 7
3 49 50 51
3 44 40 45
3 16 13 14
3 57 54 58
3 41 37 42
3 49 51 52
3 17 18 19
3 75 16 76
3 37 36 31
3 28 30 29
3 21 19 20
3 4 6 5
3 66 65 20
3 82 81 79
3 31 35 34
3 78 79 80
3 35 31 36
3 46 54 57
3 13 16 73
3 31 38 37
3 83 82 79
3 7 8 5
3 26 27 23
3 23 24 19
3 84 82 83
3 19 21 22
3 10 9 7
3 20 65 64
3 95 96 97
3 79 81 80
3 31 34 32
3 64 71 70
3 18 17 14
3 98 95 97
3 3 2 1
3 4 5 2
3 30 31 29
3 26 25 28
3 85 84 83
3 46 35 54
3 77 73 74
3 8 14 13
3 78 73 77
3 40 44 43
3 26 23 25
3 79 78 77
3 47 46 49
3 16 75 74
3 81 82 89
3 6 4 99
3 39 37 40
3 20 64 21
3 53 52 51
3 46 34 35
3 34 47 48
3 85 86 84
3 92 93 90
3 14 72 18
3 73 94 13
3 102 3 101
3 64 70 21
3 9 10 11
3 3 1 101
3 34 46 47
3 22 25 23
3 86 88 84
3 54 55 56
3 23 19 22
3 19 18 20
3 82 91 90
3 103 101 1
3 15 14 8
3 7 9 8
3 67 66 20
3 68 69 64
3 39 36 37
3 29 26 28
3 59 60 57
3 91 92 90
3 96 95 94
3 32 29 31
3 33 29 32
3 95 13 94
3 57 58 59
3 43 39 40
3 22 63 25
3 12 5 8
3 68 64 65
3 13 12 8
3 86 85 87
3 60 59 61
3 61 59 62
3 2 3 4
3 100 99 4
