OFF
17 30 0
-2.0139510631561279 80.9429168701171875 -79.9930725097656250
36.6256484985351562 71.5107040405273438 -79.9966278076171875
67.5215454101562500 45.1164474487304688 -79.9767913818359375
80.9426193237304688 -2.0139515399932861 -79.9924926757812500
61.7710647583007812 -53.6766815185546875 -79.9654998779296875
15.7534646987915039 -79.1980438232421875 -79.9928359985351562
-36.5286331176757812 -73.2311325073242188 -79.9689483642578125
-75.0318450927734375 -31.0792236328125000 -79.9894561767578125
-79.1956863403320312 15.7529888153076172 -79.9880523681640625
-53.6766815185546875 61.7710685729980469 -79.9654998779296875
14.5437145233154297 38.3100929260253906 0.9864911437034607
36.5649719238281250 16.2226791381835938 0.9555550813674927
37.3049240112304688 -18.4839401245117188 1.0218896865844727
-2.8016140460968018 -41.5484924316406250 1.0033807754516602
-35.1073036193847656 -20.0568542480468750 0.9642943143844604
-38.0463256835937500 15.7593011856079102 1.0000659227371216
-15.2670679092407227 36.8579559326171875 0.9547293186187744
3 2 11 3
3 12 3 11
3 3 12 4
3 9 15 16
3 5 7 0
3 0 1 3
3 1 2 3
3 3 4 5
3 5 6 7
3 7 8 0
3 8 9 0
3 0 3 5
3 5 12 13
3 1 0 10
3 2 1 10
3 2 10 11
3 8 14 15
3 6 5 13
3 6 13 14
3 7 6 14
3 9 8 15
3 0 9 16
3 0 16 10
3 11 10 16
3 5 4 12
3 8 7 14
3 15 14 16
3 14 13 11
3 16 14 11
3 13 12 11
