OFF
17 30 0
-2.4167413711547852 97.1315002441406250 -95.9916839599609375
43.9507751464843750 85.8128509521484375 -95.9959564208984375
81.0258483886718750 54.1397399902343750 -95.9721527099609375
97.1311492919921875 -2.4167418479919434 -95.9909973144531250
74.1252746582031250 -64.4120178222656250 -95.9586029052734375
18.9041576385498047 -95.0376586914062500 -95.9914016723632812
-43.8343620300292969 -87.8773574829101562 -95.9627380371093750
-90.0382156372070312 -37.2950668334960938 -95.9873428344726562
-95.0348205566406250 18.9035873413085938 -95.9856567382812500
-64.4120178222656250 74.1252822875976562 -95.9586029052734375
17.4524574279785156 45.9721145629882812 1.1837893724441528
43.8779640197753906 19.4672164916992188 1.1466660499572754
44.7659111022949219 -22.1807289123535156 1.2262676954269409
-3.3619370460510254 -49.8581886291503906 1.2040569782257080
-42.1287651062011719 -24.0682239532470703 1.1571531295776367
-45.6555900573730469 18.9111614227294922 1.2000792026519775
-18.3204822540283203 44.2295494079589844 1.1456751823425293
3 2 11 3
3 12 3 11
3 3 12 4
3 9 15 16
3 5 7 0
3 0 1 3
3 1 2 3
3 3 4 5
3 5 6 7
3 7 8 0
3 8 9 0
3 0 3 5
3 5 12 13
3 1 0 10
3 2 1 10
3 2 10 11
3 8 14 15
3 6 5 13
3 6 13 14
3 7 6 14
3 9 8 15
3 0 9 16
3 0 16 10
3 11 10 16
3 5 4 12
3 8 7 14
3 15 14 16
3 14 13 11
3 16 14 11
3 13 12 11
