OFF
24 22 0
0 0 0
29.575 0 0
9.95198 22.412 0
-28.2774 22.8742 0
-9.08085 37.3335 0
15.5606 48.5198 0
-27.7231 52.3392 0
-30.9312 -7.73348 0
-12.0734 -22.5078 0
-52.0847 13.8502 0
-57.7392 -11.8581 0
-76.5312 4.22088 0
-67.7696 31.3392 0
-82.7812 -18.6297 0
-50.086 -44.3476 0
-38.9943 -26.6694 0
-30.8155 -8.57189 0
-89.2091 -38.2695 0
-89.9512 -61.775 0
-62.707 -68.1605 0
-32.384 -67.1195 0
-84.8009 -87.9717 0
-111.526 -50.6602 0
-101.509 2.72167 0
3 0 1 2
3 15 16 10
3 20 14 19
3 11 9 12
3 18 21 19
3 9 10 7
3 7 3 9
3 23 13 11
3 2 5 4
3 10 9 11
3 13 10 11
3 0 7 8
3 3 7 0
3 19 14 18
3 17 18 14
3 6 3 4
3 22 18 17
3 15 10 14
3 10 13 14
3 13 17 14
3 4 3 2
3 2 3 0
