OFF
22 20 0
0 0 0
38.4977 0 0
19.2476 33.3417 0
-19.2509 33.3414 0
-38.5016 -0.00203642 0
-19.2492 -33.344 0
-57.749 -33.349 0
-38.494 -66.6864 0
0.00741954 -66.6819 0
-19.2389 -100.025 0
-77.0029 -0.00943593 0
-96.2476 -33.3518 0
-76.9945 -66.692 0
-115.494 -66.6954 0
19.2505 -33.3391 0
-57.7523 33.3409 0
-38.5001 66.6813 0
-77.0014 66.6808 0
-57.7508 100.022 0
-0.00397826 66.6825 0
38.4952 66.6862 0
57.7474 33.3465 0
3 4 6 5
3 4 5 0
3 4 0 3
3 4 3 15
3 4 10 6
3 6 11 12
3 5 7 8
3 0 1 2
3 3 2 19
3 15 16 17
3 6 7 5
3 5 14 0
3 0 2 3
3 3 16 15
3 10 11 6
3 7 9 8
3 21 20 2
3 2 20 19
3 16 18 17
3 11 13 12
