OFF
82 80 0
0 0 0
34.1895 0 0
19.2205 32.9573 0
-22.5003 33.6468 0
-5.29927 61.196 0
-46.0451 65.1491 0
-19.8748 91.7525 0
14.6553 91.2953 0
-0.885404 126.109 0
-33.6755 132.277 0
-17.2269 162.092 0
16.4678 154.602 0
34.1628 123.516 0
15.3579 91.6175 0
52.7804 95.0511 0
72.4773 127.331 0
91.045 98.3735 0
111.443 131.651 0
126.244 98.6064 0
70.4833 66.7773 0
104.194 68.019 0
90.8885 39.0303 0
55.9127 33.9478 0
84.8724 10.6377 0
49.7435 1.36925 0
78.0797 -19.4473 0
113.654 -6.01561 0
127.231 32.2193 0
94.6972 37.9472 0
109.417 66.2436 0
142.82 68.7273 0
98.6843 -44.6253 0
64.152 -46.424 0
80.9869 -73.1758 0
41.951 -74.9944 0
26.2095 -49.9087 0
7.92598 -87.3459 0
-6.94685 -49.6365 0
-28.6805 -76.9514 0
-41.9247 -41.4736 0
-67.6805 -62.6736 0
-55.3791 -98.1829 0
-21.3524 -110.28 0
50.7409 -108.035 0
53.0238 -36.5915 0
50.531 151.34 0
-47.3133 103.976 0
-67.5007 134.921 0
-57.0514 161.817 0
-22.5069 164.444 0
-47.4384 192.597 0
-11.3258 197.801 0
11.5201 170.24 0
25.0728 203.391 0
46.8475 177.249 0
61.9313 210.118 0
85.5033 182.711 0
67.4788 152.101 0
106.655 153.616 0
120.155 188.086 0
142.577 150.343 0
150.457 180.64 0
100.799 217.387 0
136.378 221.362 0
151.076 192.276 0
171.11 217.872 0
180.681 182.1 0
206.755 206.718 0
213.96 170.7 0
186.956 146.579 0
244.402 194.014 0
250.913 161.158 0
227.206 138.087 0
64.0999 211.843 0
38.0074 146.202 0
-82.5333 184.793 0
-91.0404 157.129 0
-101.802 115.406 0
-74.8005 98.702 0
-107.156 74.6379 0
-70.2653 69.0081 0
27.6524 70.065 0
3 16 15 14
3 21 22 23
3 54 55 53
3 65 63 64
3 34 33 32
3 64 66 65
3 76 47 48
3 63 59 64
3 0 1 2
3 17 15 16
3 23 25 26
3 27 28 23
3 79 78 77
3 9 49 48
3 70 68 71
3 11 10 8
3 21 20 19
3 7 8 6
3 67 68 70
3 14 19 16
3 20 16 19
3 50 75 48
3 56 55 54
3 27 23 26
3 53 51 52
3 34 43 33
3 34 35 36
3 15 12 14
3 10 9 8
3 4 2 81
3 17 16 18
3 31 32 33
3 49 50 48
3 40 38 39
3 78 79 80
3 51 49 52
3 6 8 9
3 22 21 19
3 40 41 38
3 57 56 54
3 72 71 68
3 46 6 9
3 68 66 69
3 54 53 52
3 47 76 77
3 26 25 31
3 35 34 32
3 28 27 29
3 0 2 3
3 56 57 58
3 36 37 38
3 60 61 59
3 78 47 77
3 59 63 62
3 25 32 31
3 49 51 50
3 58 60 59
3 6 4 7
3 37 39 38
3 8 12 11
3 42 38 41
3 65 66 67
3 73 56 62
3 66 68 67
3 2 4 3
3 48 47 9
3 6 5 4
3 24 23 22
3 29 27 30
3 12 15 45
3 36 35 37
3 47 46 9
3 52 74 54
3 5 3 4
3 23 24 25
3 12 8 13
3 14 12 13
3 24 44 25
3 56 58 59
3 62 56 59
