OFF
64 90 0
-232.4949340820312500 -48.5500450134277344 29.1319999694824219
-206.5243225097656250 -48.4815139770507812 26.1979408264160156
-176.5039978027343750 -48.0044441223144531 11.3893718719482422
-146.1903839111328125 -48.0043601989746094 -9.5191326141357422
-115.8558731079101562 -48.4561157226562500 -18.8066310882568359
-85.5755386352539062 -48.0043792724609375 -12.1320762634277344
-54.2588996887207031 -48.0043678283691406 8.1183795928955078
-18.0000095367431641 -48.4854431152343750 24.8302326202392578
59.6438102722167969 -48.0043754577636719 8.1187515258789062
90.9605178833007812 -48.0043640136718750 -12.1317996978759766
121.2407608032226562 -48.4561042785644531 -18.8066520690917969
151.5699310302734375 -48.0043601989746094 -9.5194482803344727
180.9783325195312500 -48.0044288635253906 11.3890342712402344
226.1215209960937500 -48.5533866882324219 29.1630077362060547
-176.5439453125000000 -29.2795543670654297 28.8148231506347656
59.5504112243652344 -28.4403419494628906 26.2012729644775391
181.1068572998046875 -28.5437011718750000 29.4363594055175781
-85.6431961059570312 -28.9288825988769531 5.3564715385437012
-146.1170959472656250 -27.9624080657958984 8.4916896820068359
-54.1069374084472656 -28.1994438171386719 26.0909595489501953
-232.4945983886718750 -22.1315441131591797 46.8704757690429688
-115.8650054931640625 -22.4356880187988281 -0.9084237813949585
226.1242828369140625 -22.0127391815185547 46.9089508056640625
-232.4946899414062500 23.6669311523437500 47.0136566162109375
-176.5263977050781250 30.5652980804443359 29.4213829040527344
-115.8881225585937500 23.9362735748291016 -0.7440410852432251
226.1244506835937500 23.7053928375244141 46.9969444274902344
-54.2932739257812500 30.6702613830566406 25.9201869964599609
-146.1157226562500000 30.7547473907470703 8.0588073730468750
180.8848571777343750 31.1699142456054688 28.8886013031005859
206.9566040039062500 24.1130828857421875 44.2013854980468750
59.7353630065917969 31.3549079895019531 25.4740848541259766
-232.4949340820312500 50.4988441467285156 29.1320800781250000
226.1215209960937500 50.5021705627441406 29.1631107330322266
-17.7319488525390625 49.9531593322753906 24.3033123016357422
90.9605178833007812 49.9531593322753906 -12.1317634582519531
-146.1903686523437500 49.9531745910644531 -9.5191144943237305
-54.2589073181152344 49.9531555175781250 8.1184043884277344
-176.5039062500000000 49.9532089233398438 11.3892860412597656
59.6438179016113281 49.9531631469726562 8.1187782287597656
180.9783020019531250 49.9532089233398438 11.3889865875244141
206.5647583007812500 -48.4697647094726562 26.1811408996582031
91.0495223999023438 -28.2574825286865234 5.8364720344543457
206.9460906982421875 -21.9169235229492188 44.2866401672363281
206.5647583007812500 50.4185676574707031 26.1811866760253906
90.9813156127929688 30.4045505523681641 5.5514874458312988
121.2676849365234375 -22.0195465087890625 -0.7559808492660522
-17.6771984100341797 -22.0087966918945312 42.8689956665039062
-17.7356815338134766 30.0726318359375000 42.2101593017578125
121.2676086425781250 24.2708721160888672 -0.8663252592086792
121.2407836914062500 50.4049186706542969 -18.8066158294677734
23.1183185577392578 -21.7160549163818359 42.9138984680175781
151.5699310302734375 49.9531784057617188 -9.5194149017333984
23.2740249633789062 -48.5209655761718750 24.8987293243408203
151.4573669433593750 -28.8401432037353516 8.1477241516113281
-115.8558731079101562 50.4049186706542969 -18.8065948486328125
23.1167602539062500 49.9531669616699219 24.3034648895263672
151.5498046875000000 30.7209663391113281 8.3583946228027344
23.1289787292480469 30.4832572937011719 41.8899574279785156
-206.5243072509765625 50.4303169250488281 26.1979770660400391
-206.9063873291015625 -22.1578750610351562 44.2013626098632812
-85.5755691528320312 49.9531669616699219 -12.1320514678955078
-206.8944396972656250 23.8594951629638672 44.2865982055664062
-85.6396102905273438 29.8411884307861328 5.9275879859924316
3 14 1 2
3 15 53 8
3 12 54 11
3 41 16 12
3 6 17 5
3 42 15 9
3 18 14 3
3 7 19 6
3 60 0 1
3 21 18 4
3 17 21 4
3 53 47 7
3 46 42 10
3 54 46 10
3 13 43 41
3 24 60 14
3 18 24 14
3 17 25 21
3 57 46 54
3 27 63 19
3 48 19 47
3 46 45 42
3 29 57 16
3 30 16 43
3 26 30 43
3 58 48 51
3 15 58 51
3 45 31 15
3 62 32 23
3 24 59 62
3 44 29 30
3 33 30 26
3 61 55 63
3 34 27 48
3 56 48 58
3 31 56 58
3 50 35 45
3 55 36 28
3 37 61 27
3 36 38 24
3 35 39 31
3 52 50 57
3 40 57 29
3 3 14 2
3 9 15 8
3 11 54 10
3 12 16 54
3 5 17 4
3 10 42 9
3 4 18 3
3 6 19 17
3 60 20 0
3 14 60 1
3 7 47 19
3 53 51 47
3 15 51 53
3 41 43 16
3 13 22 43
3 60 23 20
3 21 25 18
3 17 63 25
3 19 63 17
3 60 62 23
3 24 62 60
3 22 26 43
3 16 57 54
3 48 27 19
3 51 48 47
3 18 28 24
3 25 28 18
3 42 45 15
3 46 49 45
3 57 49 46
3 30 29 16
3 15 31 58
3 62 59 32
3 25 55 28
3 63 55 25
3 49 50 45
3 57 50 49
3 33 44 30
3 27 61 63
3 56 34 48
3 45 35 31
3 28 36 24
3 34 37 27
3 24 38 59
3 31 39 56
3 40 52 57
3 44 40 29
