OFF
83 81 0
0 0 0
45.6283 0 0
22.0671 40.7919 0
25.226 -41.6742 0
-15.7437 -40.312 0
-4.55031 -81.7996 0
-49.5389 -63.626 0
-40.2959 -109.744 0
40.0181 -84.413 0
11.7716 -124.947 0
-37.3218 -113.179 0
-17.0885 -155.749 0
40.1634 -171.395 0
5.6298 -193.074 0
37.1312 -223.5 0
54.7941 -127.627 0
44.8103 -168.213 0
86.8746 -97.7381 0
94.6839 -145.17 0
48.7856 -168.989 0
91.9955 -188.064 0
61.4716 -219.617 0
103.59 -236.317 0
136.997 -161.298 0
134.585 -117.54 0
91.6475 -97.1955 0
180.119 -138.283 0
180.724 -184.468 0
137.839 -201.809 0
94.9277 -192.47 0
115.956 -237.421 0
166.042 -235.03 0
169.009 -232.264 0
220.248 -160.814 0
177.515 -93.2641 0
72.7784 -50.3765 0
69.1729 -47.2415 0
-45.7054 -10.0033 0
-51.4909 -60.506 0
69.5081 -42.8638 0
91.1231 1.24397 0
116.614 -41.4303 0
97.2269 -83.7722 0
133.913 1.43242 0
164.728 -30.7685 0
148.586 -77.3701 0
101.786 -85.5759 0
123.035 42.9128 0
77.9731 42.3148 0
45.7368 4.62138 0
108.932 84.1118 0
66.5045 81.7456 0
31.8761 53.9974 0
42.1405 8.02191 0
79.835 121.338 0
30.9486 104.937 0
29.5028 57.2514 0
-12.8502 79.1801 0
-9.36136 31.943 0
-52.7535 49.4408 0
127.55 125.382 0
154.629 81.7977 0
127.034 44.5067 0
174.546 122.55 0
202.809 75.2937 0
180.789 39.0961 0
131.197 41.7601 0
220.409 113.665 0
246.988 64.8822 0
229.639 28.3278 0
277.779 30.6359 0
297.764 69.9454 0
328.275 37.3835 0
307.874 -4.23516 0
357.052 -2.43071 0
264.813 98.3742 0
184.658 37.0093 0
209.015 -10.1349 0
253.973 -13.6335 0
277.766 25.7608 0
165.322 -1.33655 0
261.624 99.8855 0
169.523 25.4373 0
3 63 60 61
3 71 70 72
3 61 65 64
3 68 70 71
3 0 1 2
3 61 60 50
3 23 29 28
3 28 29 30
3 9 10 11
3 40 1 39
3 57 59 58
3 67 68 81
3 71 75 68
3 4 37 38
3 73 72 70
3 0 37 4
3 54 55 51
3 80 77 76
3 41 44 43
3 69 76 77
3 6 7 5
3 8 17 35
3 66 65 61
3 15 8 9
3 19 21 20
3 30 31 28
3 3 1 0
3 78 69 77
3 43 82 47
3 48 52 53
3 39 1 3
3 18 24 25
3 5 10 9
3 79 69 78
3 17 8 15
3 51 52 48
3 44 41 45
3 28 32 27
3 64 63 61
3 45 41 46
3 60 54 50
3 73 74 72
3 50 54 51
3 70 68 69
3 51 55 56
3 39 42 41
3 28 27 23
3 9 11 12
3 20 21 22
3 39 41 40
3 58 56 57
3 9 16 15
3 9 8 5
3 34 24 26
3 40 41 43
3 3 8 36
3 20 23 18
3 18 23 24
3 67 64 68
3 50 62 61
3 57 56 55
3 63 64 67
3 76 69 64
3 64 69 68
3 5 4 6
3 12 13 14
3 11 13 12
3 43 47 40
3 0 4 3
3 18 19 20
3 26 27 33
3 48 50 51
3 23 26 24
3 47 50 48
3 27 26 23
3 40 48 49
3 17 15 18
3 3 5 8
3 47 48 40
3 18 15 19
3 4 5 3
